<?xml version="1.0" encoding="utf-8"?>
<svg
     x="0px"
     y="0px"
     width="57"
     height="57"
     viewBox="105 11 57 57">

    <path class="innerEyeBack" fill="#E60000" d="M136.622,53.743c12.749-5.395,19.347-18.598,14.737-29.491c-3.988-9.424-15.059-14.024-26.227-11.601
				c-11.219,3.563-19.349,14.06-19.349,26.459c0,2.72,0.398,5.347,1.128,7.831C112.691,55.49,125.186,58.582,136.622,53.743z"/>

    <path class="outerEye" fill="#E60000" d="M133.543,11.35c-2.933,0-5.757,0.458-8.411,1.301c11.169-2.423,22.239,2.178,26.227,11.601
				c4.609,10.892-1.989,24.096-14.737,29.491c-11.436,4.839-23.931,1.747-29.711-6.802c3.381,11.517,14.021,19.929,26.632,19.929
				c15.331,0,27.76-12.428,27.76-27.76S148.874,11.35,133.543,11.35z"/>
</svg>
