<svg
        x="0px"
        y="0px"
        width="57"
        height="57"
        viewBox="114 11.3 57 57"
>
    <defs>
        <mask id="theEyeMask">
            <circle class="eyeMask" id="eyeMask" r="30" cx="140" cy="35" fill="#fff"/>
        </mask>
    </defs>

    <path class="pupilFront"
          fill="#AF0000"
          d="M145.622,53.743c12.749-5.395,19.347-18.598,14.737-29.491c-3.988-9.424-15.059-14.024-26.227-11.601
    c-11.219,3.563-19.349,14.06-19.349,26.459c0,2.72,0.398,5.347,1.128,7.831C121.691,55.49,134.186,58.582,145.622,53.743z"
          mask="url(#theEyeMask)"/>

    <path class="upperOne" fill="#FFFFFF" d="M149.659,51.655V23.152c0-0.566-0.462-1.027-1.029-1.027h-6.454c-0.461,0-0.72,0.102-1.132,0.257
    l-8.328,4.287c-0.513,0.207-0.719,0.514-0.719,1.029v4.671c0,0.549,0.445,0.992,0.993,0.992h5.33v22.409
    c2.433-0.338,4.891-1.006,7.302-2.027C147.047,53.14,148.395,52.439,149.659,51.655z" mask="url(#theEyeMask)"/>


</svg>
