<?xml version="1.0" encoding="utf-8"?>
<!-- Generator: Adobe Illustrator 18.0.0, SVG Export Plug-In . SVG Version: 6.00 Build 0)  -->
<!DOCTYPE svg PUBLIC "-//W3C//DTD SVG 1.1//EN" "http://www.w3.org/Graphics/SVG/1.1/DTD/svg11.dtd">
<svg version="1.1" id="SpareBank_1" xmlns="http://www.w3.org/2000/svg" xmlns:xlink="http://www.w3.org/1999/xlink" x="0px"
	 y="0px" width="281.633px" height="78.197px" viewBox="0 0 281.633 78.197" enable-background="new 0 0 281.633 78.197"
	 xml:space="preserve">

	<rect x="0.009" y="0.011" fill="none" width="281.633" height="78.208"/>

			<path fill="#E60000" d="M242.543,11.35c-2.933,0-5.757,0.458-8.411,1.301c11.169-2.423,22.239,2.178,26.227,11.601
				c4.609,10.892-1.989,24.096-14.737,29.491c-11.436,4.839-23.931,1.747-29.711-6.802c3.381,11.517,14.021,19.929,26.632,19.929
				c15.331,0,27.76-12.428,27.76-27.76S257.874,11.35,242.543,11.35z"/>
			<path fill="#AF0000" d="M245.622,53.743c12.749-5.395,19.347-18.598,14.737-29.491c-3.988-9.424-15.059-14.024-26.227-11.601
				c-11.219,3.563-19.349,14.06-19.349,26.459c0,2.72,0.398,5.347,1.128,7.831C221.691,55.49,234.186,58.582,245.622,53.743z"/>

				<path fill="#FFFFFF" d="M249.659,51.655V23.152c0-0.566-0.462-1.027-1.029-1.027h-6.454c-0.461,0-0.72,0.102-1.132,0.257
					l-8.328,4.287c-0.513,0.207-0.719,0.514-0.719,1.029v4.671c0,0.549,0.445,0.992,0.993,0.992h5.33v22.409
					c2.433-0.338,4.891-1.006,7.302-2.027C247.047,53.14,248.395,52.439,249.659,51.655z"/>
				<path fill="none" d="M239.347,60.319h9.283c0.567,0,1.029-0.465,1.029-1.029v-7.635c-1.264,0.784-2.612,1.485-4.037,2.087
					c-2.411,1.02-4.87,1.688-7.302,2.027v3.521C238.32,59.855,238.784,60.319,239.347,60.319z"/>



</svg>
