<svg width="354px" height="121px" viewBox="0 0 354 121" >
    <path class="building5" d="M264.244718,97.5150048 L266.821985,97.5150048 L266.821985,66.4958657 C266.821985,65.4857787 266.004739,64.6666613 264.995786,64.6666613 L250.874653,64.6666613 C249.8657,64.6666613 249.047404,65.4857787 249.047404,66.4958657 L249.047404,97.5150048 L251.625721,97.5150048" id="Fill-1" fill="#D9EEF9"></path>
    <path class="building6" d="M284.347296,97.2596948 L286.925088,97.2596948 L286.925088,53.1862339 C286.925088,52.1756209 286.107317,51.3565035 285.098364,51.3565035 L270.977231,51.3565035 C269.968278,51.3565035 269.149982,52.1756209 269.149982,53.1862339 L269.149982,97.4117339 L271.728299,97.4117339" id="Fill-3" fill="#D9EEF9"></path>

    <path class="building6window2" d="M280.188584,60.8420091 L280.939652,60.8420091 C281.444391,60.8420091 281.853014,60.4327135 281.853014,59.9271439 L281.853014,57.6539222 C281.853014,57.1483526 281.444391,56.739057 280.939652,56.739057 L280.188584,56.739057 C279.68437,56.739057 279.275222,57.1483526 279.275222,57.6539222 L279.275222,59.9271439 C279.275222,60.4327135 279.68437,60.8420091 280.188584,60.8420091" id="Fill-5" fill="#FFFFFF"></path>
    <path class="building6window1" d="M275.135891,60.8420091 L275.886959,60.8420091 C276.391172,60.8420091 276.799796,60.4327135 276.799796,59.9271439 L276.799796,57.6539222 C276.799796,57.1483526 276.391172,56.739057 275.886959,56.739057 L275.135891,56.739057 C274.631152,56.739057 274.222528,57.1483526 274.222528,57.6539222 L274.222528,59.9271439 C274.222528,60.4327135 274.631152,60.8420091 275.135891,60.8420091" id="Fill-7" fill="#FFFFFF"></path>
    <path class="building6window4" d="M280.188584,67.375483 L280.939652,67.375483 C281.444391,67.375483 281.853014,66.9661874 281.853014,66.4611439 L281.853014,64.1873961 C281.853014,63.6823526 281.444391,63.2725309 280.939652,63.2725309 L280.188584,63.2725309 C279.68437,63.2725309 279.275222,63.6823526 279.275222,64.1873961 L279.275222,66.4611439 C279.275222,66.9661874 279.68437,67.375483 280.188584,67.375483" id="Fill-9" fill="#FFFFFF"></path>
    <path class="building6window3" d="M275.135891,67.375483 L275.886959,67.375483 C276.391172,67.375483 276.799796,66.9661874 276.799796,66.4611439 L276.799796,64.1873961 C276.799796,63.6823526 276.391172,63.2725309 275.886959,63.2725309 L275.135891,63.2725309 C274.631152,63.2725309 274.222528,63.6823526 274.222528,64.1873961 L274.222528,66.4611439 C274.222528,66.9661874 274.631152,67.375483 275.135891,67.375483" id="Fill-11" fill="#FFFFFF"></path>
    <path class="building6window6" d="M280.188584,73.9094304 L280.939652,73.9094304 C281.444391,73.9094304 281.853014,73.5001348 281.853014,72.9950913 L281.853014,70.7213435 C281.853014,70.2157739 281.444391,69.8064783 280.939652,69.8064783 L280.188584,69.8064783 C279.68437,69.8064783 279.275222,70.2157739 279.275222,70.7213435 L279.275222,72.9950913 C279.275222,73.5001348 279.68437,73.9094304 280.188584,73.9094304" id="Fill-13" fill="#FFFFFF"></path>
    <path class="building6window5" d="M275.135891,73.9094304 L275.886959,73.9094304 C276.391172,73.9094304 276.799796,73.5001348 276.799796,72.9950913 L276.799796,70.7213435 C276.799796,70.2157739 276.391172,69.8064783 275.886959,69.8064783 L275.135891,69.8064783 C274.631152,69.8064783 274.222528,70.2157739 274.222528,70.7213435 L274.222528,72.9950913 C274.222528,73.5001348 274.631152,73.9094304 275.135891,73.9094304" id="Fill-15" fill="#FFFFFF"></path>
    <path class="building5window2" d="M260.086006,73.9094304 L260.837074,73.9094304 C261.341813,73.9094304 261.750436,73.5001348 261.750436,72.9950913 L261.750436,70.7213435 C261.750436,70.2157739 261.341813,69.8064783 260.837074,69.8064783 L260.086006,69.8064783 C259.581792,69.8064783 259.173169,70.2157739 259.173169,70.7213435 L259.173169,72.9950913 C259.173169,73.5001348 259.581792,73.9094304 260.086006,73.9094304" id="Fill-17" fill="#FFFFFF"></path>
    <path class="building5window1" d="M255.033312,73.9094304 L255.784381,73.9094304 C256.288594,73.9094304 256.697743,73.5001348 256.697743,72.9950913 L256.697743,70.7213435 C256.697743,70.2157739 256.288594,69.8064783 255.784381,69.8064783 L255.033312,69.8064783 C254.528574,69.8064783 254.11995,70.2157739 254.11995,70.7213435 L254.11995,72.9950913 C254.11995,73.5001348 254.528574,73.9094304 255.033312,73.9094304" id="Fill-19" fill="#FFFFFF"></path>
    <path class="building5window3" d="M260.086006,80.6725413 L260.837074,80.6725413 C261.341813,80.6725413 261.750436,80.2632457 261.750436,79.7576761 L261.750436,77.4839283 C261.750436,76.9788848 261.341813,76.569063 260.837074,76.569063 L260.086006,76.569063 C259.581792,76.569063 259.173169,76.9788848 259.173169,77.4839283 L259.173169,79.7576761 C259.173169,80.2632457 259.581792,80.6725413 260.086006,80.6725413" id="Fill-21" fill="#FFFFFF"></path>
    <path class="building5window4" d="M255.033312,80.6725413 L255.784381,80.6725413 C256.288594,80.6725413 256.697743,80.2632457 256.697743,79.7576761 L256.697743,77.4839283 C256.697743,76.9788848 256.288594,76.569063 255.784381,76.569063 L255.033312,76.569063 C254.528574,76.569063 254.11995,76.9788848 254.11995,77.4839283 L254.11995,79.7576761 C254.11995,80.2632457 254.528574,80.6725413 255.033312,80.6725413" id="Fill-23" fill="#FFFFFF"></path>

    <path class="building2" d="M59.6353967,88.2627661 L57.0576045,88.2627661 L57.0576045,57.244153 C57.0576045,56.23354 57.875376,55.4149487 58.8843285,55.4149487 L73.0059872,55.4149487 C74.0144145,55.4149487 74.8321861,56.23354 74.8321861,57.244153 L74.8321861,88.2627661 L72.254919,88.2627661" id="Fill-25" fill="#D9EEF9"></path>
    <path class="building1" d="M39.5325561,88.0079296 L36.9547638,88.0079296 L36.9547638,43.9344687 C36.9547638,42.9238557 37.7725353,42.1042122 38.7814878,42.1042122 L52.9031466,42.1042122 C53.9120991,42.1042122 54.7298706,42.9238557 54.7298706,43.9344687 L54.7298706,88.1599687 L52.1520783,88.1599687" id="Fill-27" fill="#D9EEF9"></path>

    <path class="building1window1" d="M43.6915309,51.5897704 L42.9404626,51.5897704 C42.4357237,51.5897704 42.0271006,51.1804748 42.0271006,50.6754313 L42.0271006,48.4016835 C42.0271006,47.89664 42.4357237,47.4868183 42.9404626,47.4868183 L43.6915309,47.4868183 C44.1957445,47.4868183 44.6048929,47.89664 44.6048929,48.4016835 L44.6048929,50.6754313 C44.6048929,51.1804748 44.1957445,51.5897704 43.6915309,51.5897704" id="Fill-29" fill="#FFFFFF"></path>
    <path class="building1window2" d="M48.7444869,51.5897704 L47.9934187,51.5897704 C47.4886798,51.5897704 47.0800567,51.1804748 47.0800567,50.6754313 L47.0800567,48.4016835 C47.0800567,47.89664 47.4886798,47.4868183 47.9934187,47.4868183 L48.7444869,47.4868183 C49.2487006,47.4868183 49.657849,47.89664 49.657849,48.4016835 L49.657849,50.6754313 C49.657849,51.1804748 49.2487006,51.5897704 48.7444869,51.5897704" id="Fill-31" fill="#FFFFFF"></path>
    <path class="building1window3" d="M43.6915309,58.1237178 L42.9404626,58.1237178 C42.4357237,58.1237178 42.0271006,57.7144222 42.0271006,57.2088526 L42.0271006,54.9356309 C42.0271006,54.4300613 42.4357237,54.0207657 42.9404626,54.0207657 L43.6915309,54.0207657 C44.1957445,54.0207657 44.6048929,54.4300613 44.6048929,54.9356309 L44.6048929,57.2088526 C44.6048929,57.7144222 44.1957445,58.1237178 43.6915309,58.1237178" id="Fill-33" fill="#FFFFFF"></path>
    <path class="building1window4" d="M48.7444869,58.1237178 L47.9934187,58.1237178 C47.4886798,58.1237178 47.0800567,57.7144222 47.0800567,57.2088526 L47.0800567,54.9356309 C47.0800567,54.4300613 47.4886798,54.0207657 47.9934187,54.0207657 L48.7444869,54.0207657 C49.2487006,54.0207657 49.657849,54.4300613 49.657849,54.9356309 L49.657849,57.2088526 C49.657849,57.7144222 49.2487006,58.1237178 48.7444869,58.1237178" id="Fill-35" fill="#FFFFFF"></path>
    <path class="building1window5" d="M43.6915309,64.6576652 L42.9404626,64.6576652 C42.4357237,64.6576652 42.0271006,64.2483696 42.0271006,63.7428 L42.0271006,61.4690522 C42.0271006,60.9640087 42.4357237,60.554713 42.9404626,60.554713 L43.6915309,60.554713 C44.1957445,60.554713 44.6048929,60.9640087 44.6048929,61.4690522 L44.6048929,63.7428 C44.6048929,64.2483696 44.1957445,64.6576652 43.6915309,64.6576652" id="Fill-37" fill="#FFFFFF"></path>
    <path class="building1window5" d="M48.7444869,64.6576652 L47.9934187,64.6576652 C47.4886798,64.6576652 47.0800567,64.2483696 47.0800567,63.7428 L47.0800567,61.4690522 C47.0800567,60.9640087 47.4886798,60.554713 47.9934187,60.554713 L48.7444869,60.554713 C49.2487006,60.554713 49.657849,60.9640087 49.657849,61.4690522 L49.657849,63.7428 C49.657849,64.2483696 49.2487006,64.6576652 48.7444869,64.6576652" id="Fill-39" fill="#FFFFFF"></path>
    <path class="building2window1" d="M63.7938463,64.6576652 L63.042778,64.6576652 C62.5385644,64.6576652 62.1299412,64.2483696 62.1299412,63.7428 L62.1299412,61.4690522 C62.1299412,60.9640087 62.5385644,60.554713 63.042778,60.554713 L63.7938463,60.554713 C64.2980599,60.554713 64.7072083,60.9640087 64.7072083,61.4690522 L64.7072083,63.7428 C64.7072083,64.2483696 64.2980599,64.6576652 63.7938463,64.6576652" id="Fill-41" fill="#FFFFFF"></path>
    <path class="building2window2" d="M68.8468024,64.6576652 L68.0957341,64.6576652 C67.5915205,64.6576652 67.1828973,64.2483696 67.1828973,63.7428 L67.1828973,61.4690522 C67.1828973,60.9640087 67.5915205,60.554713 68.0957341,60.554713 L68.8468024,60.554713 C69.351016,60.554713 69.7601644,60.9640087 69.7601644,61.4690522 L69.7601644,63.7428 C69.7601644,64.2483696 69.351016,64.6576652 68.8468024,64.6576652" id="Fill-43" fill="#FFFFFF"></path>
    <path class="building2window3" d="M63.7938463,71.42025 L63.042778,71.42025 C62.5385644,71.42025 62.1299412,71.0109543 62.1299412,70.5059109 L62.1299412,68.232163 C62.1299412,67.7265935 62.5385644,67.3172978 63.042778,67.3172978 L63.7938463,67.3172978 C64.2980599,67.3172978 64.7072083,67.7265935 64.7072083,68.232163 L64.7072083,70.5059109 C64.7072083,71.0109543 64.2980599,71.42025 63.7938463,71.42025" id="Fill-45" fill="#FFFFFF"></path>
    <path class="building2window4" d="M68.8468024,71.42025 L68.0957341,71.42025 C67.5915205,71.42025 67.1828973,71.0109543 67.1828973,70.5059109 L67.1828973,68.232163 C67.1828973,67.7265935 67.5915205,67.3172978 68.0957341,67.3172978 L68.8468024,67.3172978 C69.351016,67.3172978 69.7601644,67.7265935 69.7601644,68.232163 L69.7601644,70.5059109 C69.7601644,71.0109543 69.351016,71.42025 68.8468024,71.42025" id="Fill-47" fill="#FFFFFF"></path>

    <path class="building3" d="M98.7501383,84.8504083 L101.327931,84.8504083 L101.327931,53.8312691 C101.327931,52.8211822 100.510159,52.0020648 99.5012065,52.0020648 L85.380073,52.0020648 C84.3711205,52.0020648 83.553349,52.8211822 83.553349,53.8312691 L83.553349,84.8504083 L86.1311412,84.8504083" id="Fill-49" fill="#D9EEF9"></path>
    <path class="building4" d="M118.852979,84.5950457 L121.430771,84.5950457 L121.430771,40.5215848 C121.430771,39.5109717 120.613,38.6918543 119.604047,38.6918543 L105.482388,38.6918543 C104.473961,38.6918543 103.655664,39.5109717 103.655664,40.5215848 L103.655664,84.7470848 L106.233457,84.7470848" id="Fill-51" fill="#D9EEF9"></path>

    <path class="building4window2" d="M114.694267,48.1774126 L115.445335,48.1774126 C115.950074,48.1774126 116.358697,47.768117 116.358697,47.2625474 L116.358697,44.9893257 C116.358697,44.4837561 115.950074,44.0744604 115.445335,44.0744604 L114.694267,44.0744604 C114.190053,44.0744604 113.780905,44.4837561 113.780905,44.9893257 L113.780905,47.2625474 C113.780905,47.768117 114.190053,48.1774126 114.694267,48.1774126" id="Fill-53" fill="#FFFFFF"></path>
    <path class="building4window1" d="M109.641311,48.1774126 L110.392379,48.1774126 C110.896593,48.1774126 111.305741,47.768117 111.305741,47.2625474 L111.305741,44.9893257 C111.305741,44.4837561 110.896593,44.0744604 110.392379,44.0744604 L109.641311,44.0744604 C109.137097,44.0744604 108.727949,44.4837561 108.727949,44.9893257 L108.727949,47.2625474 C108.727949,47.768117 109.137097,48.1774126 109.641311,48.1774126" id="Fill-55" fill="#FFFFFF"></path>
    <path class="building4window4" d="M114.694267,54.7108339 L115.445335,54.7108339 C115.950074,54.7108339 116.358697,54.3015383 116.358697,53.7964948 L116.358697,51.522747 C116.358697,51.0177035 115.950074,50.6078817 115.445335,50.6078817 L114.694267,50.6078817 C114.190053,50.6078817 113.780905,51.0177035 113.780905,51.522747 L113.780905,53.7964948 C113.780905,54.3015383 114.190053,54.7108339 114.694267,54.7108339" id="Fill-57" fill="#FFFFFF"></path>
    <path class="building4window3" d="M109.641311,54.7108339 L110.392379,54.7108339 C110.896593,54.7108339 111.305741,54.3015383 111.305741,53.7964948 L111.305741,51.522747 C111.305741,51.0177035 110.896593,50.6078817 110.392379,50.6078817 L109.641311,50.6078817 C109.137097,50.6078817 108.727949,51.0177035 108.727949,51.522747 L108.727949,53.7964948 C108.727949,54.3015383 109.137097,54.7108339 109.641311,54.7108339" id="Fill-59" fill="#FFFFFF"></path>
    <path class="building4window6" d="M114.694267,61.2453074 L115.445335,61.2453074 C115.950074,61.2453074 116.358697,60.8354857 116.358697,60.3304422 L116.358697,58.0566943 C116.358697,57.5516509 115.950074,57.1418291 115.445335,57.1418291 L114.694267,57.1418291 C114.190053,57.1418291 113.780905,57.5516509 113.780905,58.0566943 L113.780905,60.3304422 C113.780905,60.8354857 114.190053,61.2453074 114.694267,61.2453074" id="Fill-61" fill="#FFFFFF"></path>
    <path class="building4window5" d="M109.641311,61.2453074 L110.392379,61.2453074 C110.896593,61.2453074 111.305741,60.8354857 111.305741,60.3304422 L111.305741,58.0566943 C111.305741,57.5516509 110.896593,57.1418291 110.392379,57.1418291 L109.641311,57.1418291 C109.137097,57.1418291 108.727949,57.5516509 108.727949,58.0566943 L108.727949,60.3304422 C108.727949,60.8354857 109.137097,61.2453074 109.641311,61.2453074" id="Fill-63" fill="#FFFFFF"></path>
    <path class="building3window2" d="M94.5916887,61.2453074 L95.342757,61.2453074 C95.8469706,61.2453074 96.256119,60.8354857 96.256119,60.3304422 L96.256119,58.0566943 C96.256119,57.5516509 95.8469706,57.1418291 95.342757,57.1418291 L94.5916887,57.1418291 C94.0874751,57.1418291 93.6783267,57.5516509 93.6783267,58.0566943 L93.6783267,60.3304422 C93.6783267,60.8354857 94.0874751,61.2453074 94.5916887,61.2453074" id="Fill-65" fill="#FFFFFF"></path>
    <path class="building3window1" d="M89.5387326,61.2453074 L90.2898009,61.2453074 C90.7940145,61.2453074 91.2031629,60.8354857 91.2031629,60.3304422 L91.2031629,58.0566943 C91.2031629,57.5516509 90.7940145,57.1418291 90.2898009,57.1418291 L89.5387326,57.1418291 C89.034519,57.1418291 88.6253706,57.5516509 88.6253706,58.0566943 L88.6253706,60.3304422 C88.6253706,60.8354857 89.034519,61.2453074 89.5387326,61.2453074" id="Fill-67" fill="#FFFFFF"></path>
    <path class="building3window4" d="M94.5916887,68.0078922 L95.342757,68.0078922 C95.8469706,68.0078922 96.256119,67.5985965 96.256119,67.093027 L96.256119,64.8192791 C96.256119,64.3142357 95.8469706,63.9044139 95.342757,63.9044139 L94.5916887,63.9044139 C94.0874751,63.9044139 93.6783267,64.3142357 93.6783267,64.8192791 L93.6783267,67.093027 C93.6783267,67.5985965 94.0874751,68.0078922 94.5916887,68.0078922" id="Fill-69" fill="#FFFFFF"></path>
    <path class="building3window3" d="M89.5387326,68.0078922 L90.2898009,68.0078922 C90.7940145,68.0078922 91.2031629,67.5985965 91.2031629,67.093027 L91.2031629,64.8192791 C91.2031629,64.3142357 90.7940145,63.9044139 90.2898009,63.9044139 L89.5387326,63.9044139 C89.034519,63.9044139 88.6253706,64.3142357 88.6253706,64.8192791 L88.6253706,67.093027 C88.6253706,67.5985965 89.034519,68.0078922 89.5387326,68.0078922" id="Fill-71" fill="#FFFFFF"></path>

    <path d="M353.458706,110.320908 C347.396587,104.743334 336.852744,100.13113 322.963759,96.9814474 C310.057991,94.0537735 295.014041,92.5070778 279.458525,92.5070778 C264.227071,92.5070778 249.875364,94.0001126 237.955439,96.8241474 C234.683827,97.5985474 230.99624,97.9752257 226.680486,97.9752257 C212.893394,97.9752257 195.421866,94.1005952 175.191344,89.6135996 C149.445985,83.9029257 120.266195,77.4310039 91.0260053,77.4310039 C53.6338362,77.4310039 23.8710499,88.194743 0.0380261128,110.337217 C0.00231097923,110.37036 -0.00924391691,110.421391 0.0080884273,110.466108 C0.0259459941,110.511352 0.0690142433,110.541339 0.117334718,110.541339 L353.396729,110.541339 L353.401456,110.541339 C353.466584,110.541339 353.518581,110.488204 353.518581,110.423495 C353.518581,110.379304 353.494421,110.3409 353.458706,110.320908" id="Fill-73" fill="#CCE8F7"></path>

    <path class="cloud1" d="M76.5540757,19.5179839 C75.3282062,18.2574796 73.3775297,17.5057013 71.3359896,17.5057013 C70.3538234,17.5057013 69.3910905,17.6866752 68.5517849,18.03021 C68.1930579,18.1764622 67.9015593,18.3427057 67.6793902,18.5268361 C67.8190994,16.9622535 67.315411,15.3413796 66.2224228,13.886223 C64.5884555,11.7113796 61.9733724,10.3304013 59.2269837,10.1925665 C56.3723991,10.0426317 53.499957,11.2505274 51.5918234,13.3427752 C50.3402181,14.71481 49.6663576,16.3141143 49.6611053,17.89711 C48.4651736,16.7281448 46.5727967,16.0184535 44.586405,16.0184535 C43.7492003,16.0184535 42.9445593,16.1415578 42.1945415,16.38461 C39.4402745,17.2779057 37.5568264,19.3259622 37.2784585,21.7286013 C37.0310786,23.8639883 37.6061973,25.4438274 39.2012982,27.0115665 C39.6314555,27.4345404 40.2380875,27.6770665 40.8673042,27.6770665 L75.3381855,27.6770665 C76.3287552,27.6770665 77.2289866,27.0731187 77.5772092,26.1740361 C78.4485534,23.9281709 77.9994881,21.0036535 76.5540757,19.5179839" id="Fill-75" fill="#CCE8F7"></path>
    <path class="cloud2" d="M42.7264869,12.805693 C42.1235315,10.276267 40.2222258,8.18454522 37.8844602,7.47590609 C37.2804543,7.29282783 36.6433593,7.20023652 35.9899825,7.20023652 C33.3617688,7.20023652 30.8338727,8.67959304 29.5974988,10.8723235 C29.3175552,7.31071478 27.632116,4.06475826 25.0033772,2.08404087 C23.2911516,0.794075652 21.156122,0.0838582609 18.9895789,0.0838582609 C17.4322941,0.0838582609 15.9380359,0.463166957 14.6680478,1.18127565 C11.5650329,2.93682783 9.92633858,6.82724087 10.8244691,10.0852974 C9.30237418,9.05521913 7.47249881,8.49335826 5.61058487,8.49335826 C5.24135341,8.49335826 4.87054629,8.51650609 4.50761751,8.56122348 C3.5012911,8.68538 1.67824362,9.11992783 0.76855816,10.6313757 C0.314765875,11.3852583 0.244386053,12.877767 0.605213947,14.1019713 C0.895662018,15.0899626 1.84211306,15.7796626 2.90621395,15.7796626 L40.3708638,15.7796626 C41.117205,15.7796626 41.811024,15.4424409 42.2737451,14.8553278 C42.7327896,14.2718974 42.8977095,13.52538 42.7264869,12.805693" id="Fill-77" fill="#CCE8F7" mask="url(#mask-2)"></path>
    <path class="bush" d="M148.470069,119.003395 L148.469543,119.003395 L148.469543,95.8108513 C148.507885,95.7803383 148.545175,95.7556122 148.583517,95.724573 C148.66125,95.6619687 148.67333,95.5472817 148.610828,95.469947 C148.547801,95.39156 148.433828,95.3799861 148.356095,95.4425904 C145.871267,97.4532948 143.694745,98.29556 141.701526,98.0240991 C140.874825,97.9104643 140.072285,97.5958643 139.296006,97.2907339 C138.875303,97.1255426 138.439893,96.9545643 138.000807,96.8151513 C136.048555,96.1943687 133.758585,96.3790252 132.026926,97.2965209 C130.746434,97.975173 129.872463,98.9947296 129.500606,100.24366 C129.431276,100.47619 129.379279,100.715034 129.330434,100.945986 C129.246398,101.332134 129.16814,101.697238 129.012674,102.036564 C128.459089,103.241303 127.101389,103.927321 124.739988,104.194573 L124.630217,104.207199 C122.920092,104.399747 120.981496,104.618073 119.871175,105.999051 C119.144793,106.902343 118.954137,108.228608 119.395849,109.300247 C119.524003,109.61169 119.700478,109.903669 119.871175,110.185125 C120.144291,110.636508 120.402701,111.063164 120.463626,111.548217 C120.620143,112.789782 119.444695,113.808812 118.500345,114.627403 C117.467757,115.523856 116.386849,117.956482 117.005561,119.26223 C117.034974,119.324834 117.099051,119.365343 117.168905,119.365343 L148.470069,119.365343 C148.569336,119.365343 148.650745,119.284325 148.650745,119.184369 C148.650745,119.083886 148.569336,119.003395 148.470069,119.003395" id="Fill-80" fill="#4DB0DF"></path>

    <path d="M166.242497,42.3544717 L159.118903,42.3544717 C158.340523,42.3544717 157.70763,42.9884065 157.70763,43.7680674 L157.70763,68.4952065 C157.70763,68.5956891 157.787989,68.6761804 157.888307,68.6761804 L167.473093,68.6761804 C167.572885,68.6761804 167.65377,68.5956891 167.65377,68.4952065 L167.65377,43.7680674 C167.65377,42.9884065 167.020351,42.3544717 166.242497,42.3544717" id="Fill-82" fill="#002776"></path>
    <path d="M223.589709,76.0065709 L183.081394,46.8129535 C183.018893,46.76771 182.933282,46.76771 182.870255,46.8129535 L142.36194,76.0065709 C142.314145,76.0407665 142.286308,76.0954796 142.286308,76.1533491 L142.286308,116.719388 C142.286308,118.178227 143.47121,119.365606 144.927653,119.365606 L221.023472,119.365606 C222.479914,119.365606 223.665341,118.178227 223.665341,116.719388 L223.665341,76.1533491 C223.665341,76.0954796 223.636979,76.0407665 223.589709,76.0065709" id="Fill-84" fill="#FF9100"></path>

    <path class="window" d="M172.17436,87.6462448 L160.294351,87.6462448 C159.515972,87.6462448 158.883078,88.2801796 158.883078,89.0598404 L158.883078,103.582997 C158.883078,104.362132 159.515972,104.996067 160.294351,104.996067 L172.17436,104.996067 C172.952215,104.996067 173.586158,104.362132 173.586158,103.582997 L173.586158,89.0598404 C173.586158,88.2801796 172.952215,87.6462448 172.17436,87.6462448" id="Fill-86" fill="#FFFFFF"></path>

    <path d="M227.429926,74.3671787 L184.540778,43.9214743 C183.621113,43.2680743 182.331166,43.2680743 181.410977,43.9214743 L138.521828,74.3671787 C137.715612,74.9400874 137.52233,76.0648613 138.092196,76.873983 L138.114255,76.9050222 C138.450923,77.3827091 139.000831,77.6673222 139.584353,77.6673222 C139.957787,77.6673222 140.316514,77.5536874 140.622193,77.3364135 L181.620015,48.2322309 C182.417303,47.6661613 183.534977,47.6666874 184.331214,48.2322309 L225.329561,77.3364135 C225.634715,77.5531613 225.993968,77.6673222 226.366876,77.6673222 L226.367401,77.6673222 C226.950923,77.6673222 227.500831,77.3827091 227.836448,76.9055483 L227.859033,76.873983 C228.428899,76.0648613 228.236668,74.9400874 227.429926,74.3671787" id="Fill-88" fill="#002776"></path>
    <path d="M208.093123,87.6462448 L196.915336,87.6462448 C196.136956,87.6462448 195.504063,88.2801796 195.504063,89.0598404 L195.504063,119.184106 C195.504063,119.284588 195.585473,119.365606 195.68474,119.365606 L209.323719,119.365606 C209.423511,119.365606 209.504396,119.284588 209.504396,119.184106 L209.504396,89.0598404 C209.504396,88.2801796 208.870977,87.6462448 208.093123,87.6462448" id="Fill-90" fill="#002776"></path>
    <path d="M198.978148,102.069445 C198.187163,102.069445 197.54429,102.713901 197.54429,103.505662 C197.54429,104.297949 198.187163,104.942406 198.978148,104.942406 C199.769133,104.942406 200.412005,104.297949 200.412005,103.505662 C200.412005,102.713901 199.769133,102.069445 198.978148,102.069445" id="Fill-92" fill="#4DB0DF"></path>
    <path d="M22.7944487,120.623269 C22.6557899,120.412308 21.7524071,118.055439 21.7524071,92.6575387 C21.7524071,92.5707343 21.6820273,92.4997126 21.5948404,92.4997126 L14.1193478,92.4997126 C14.0321608,92.4997126 13.961781,92.5707343 13.961781,92.6575387 C13.961781,117.949695 13.0662766,120.392317 12.9213151,120.620113 C12.8798226,120.643787 12.8493596,120.685873 12.8425318,120.736378 C12.8315021,120.813713 12.8798226,120.888417 12.9554546,120.90946 C12.9696356,120.913669 12.9853923,120.915773 13.0000985,120.915773 L13.0016742,120.915773 L22.7072617,120.915773 C22.7251193,120.915773 22.7419264,120.914195 22.7582083,120.909987 C22.8343656,120.888943 22.8805852,120.814765 22.8700807,120.736378 C22.8632528,120.687978 22.8343656,120.646943 22.7944487,120.623269" id="Fill-94" fill="#4DB0DF"></path>

    <path class="tree1crown" d="M30.2147404,84.584787 C29.4064228,82.5872348 28.0912656,80.8516739 26.699951,79.1024348 C25.5533902,77.6609565 24.3653368,75.9811609 24.7776365,74.2834783 C24.9646157,73.5117087 25.475132,72.8225348 25.968316,72.1554565 C26.6180163,71.2779435 27.289776,70.3704435 27.2341024,69.2598739 C27.1705504,67.983587 26.2004644,67.1102826 25.2629421,66.265913 C24.5465386,65.6209304 23.8059748,64.9543783 23.4603783,64.1105348 C23.1751825,63.4134696 23.1725564,62.6169739 23.1709807,61.8473087 C23.1688798,61.0008348 23.1667789,60.1249 22.7991231,59.3415565 C22.1609777,57.9800435 20.6598917,57.3871435 19.4681617,57.2861348 C19.3021914,57.2724565 19.1304436,57.2650913 18.9576454,57.2650913 C17.8331439,57.2650913 16.7480341,57.5507565 15.5473754,57.8963957 C14.5531291,58.1820609 13.5347226,58.5308565 12.9659065,59.3599696 C12.4622181,60.0938609 12.4438353,60.9955739 12.4254525,61.8673 C12.4191499,62.1892652 12.412322,62.5217522 12.3808086,62.8358261 C12.1013902,65.5925217 9.8723457,67.6579391 7.61388872,69.5365957 C5.19208754,71.5515087 2.98667804,73.5900957 2.60484125,76.3730957 C2.36533976,78.1170739 2.89739021,80.0578087 4.18628635,82.140587 C4.35803412,82.418887 4.53818546,82.6940304 4.71886202,82.9697 C5.38116766,83.980313 6.06553264,85.0251217 6.30608457,86.1998739 C6.50671958,87.1789217 6.39012018,88.2205739 6.27824777,89.2275043 C6.14168991,90.4553913 5.99987982,91.7248391 6.42268398,92.910113 C6.77458309,93.8970522 7.50254154,94.7945565 8.64700148,95.6552348 C10.3681558,96.9494087 12.4942567,97.6917174 14.4790727,97.6917174 L14.4790727,97.6917174 C15.478046,97.6917174 16.4271231,97.5096913 17.2995178,97.1514261 C17.8105593,96.9409913 18.2979659,96.6705826 18.7696157,96.4085913 C19.2969392,96.1155609 19.841595,95.8130609 20.4098858,95.6015739 C21.4062329,95.2322609 22.5007967,95.1328304 23.5596454,95.0370826 C24.6274228,94.9402826 25.7319659,94.8398 26.7593012,94.4647 C28.3628056,93.8796913 29.7252329,92.5944609 30.4048709,91.0267217 C31.2105623,89.1675304 31.1433338,86.8801043 30.2147404,84.584787" id="Fill-96" fill="#75BA78"></path>

    <path d="M342.585969,120.111597 C342.462016,119.90958 341.676283,117.750519 341.676283,95.5617491 C341.676283,95.4744187 341.605378,95.403923 341.518716,95.403923 L334.952384,95.403923 C334.865197,95.403923 334.794817,95.4744187 334.794817,95.5617491 C334.794817,117.65898 334.014862,119.891693 333.885657,120.108967 C333.846265,120.13264 333.818428,120.173675 333.811601,120.222075 C333.800571,120.299936 333.848366,120.374114 333.924523,120.395684 C333.938179,120.399367 333.953936,120.401997 333.968642,120.401997 L333.969167,120.401997 L333.970743,120.401997 L342.495105,120.401997 C342.512963,120.402523 342.529245,120.400419 342.545526,120.395684 C342.621158,120.37464 342.667903,120.300462 342.657399,120.222075 C342.650571,120.175253 342.623785,120.135797 342.585969,120.111597" id="Fill-98" fill="#4DB0DF"></path>
    <path d="M347.494541,87.0497674 C347.307036,85.4851848 346.962491,83.9184978 346.630025,82.4033674 C346.139992,80.1696022 345.633152,77.8590283 345.627375,75.5479283 C345.624749,74.342137 345.754479,73.0911022 345.881057,71.8811022 C346.159425,69.2033196 346.447247,66.4339978 345.312766,63.9740152 C344.197719,61.5555935 341.683479,59.7537457 338.906102,59.3833804 C336.305725,59.0372152 333.433808,59.9268283 331.30298,61.7302543 C328.361734,64.2202239 326.887959,68.4357587 327.635351,72.2204283 C327.729366,72.697063 327.856995,73.1752761 327.980422,73.6377065 C328.238832,74.6046543 328.505645,75.6047457 328.464152,76.6043109 C328.405853,77.9873935 327.766657,79.2799891 327.14952,80.5299717 C326.891636,81.0507978 326.626399,81.5879326 326.403179,82.12875 C324.658915,86.3569109 325.475636,91.5383413 328.43579,95.0226152 C330.768829,97.7703674 334.375007,99.4101804 338.082553,99.4101804 C339.013772,99.4101804 339.933437,99.304963 340.816336,99.0966326 C342.039054,98.8093891 343.094226,98.3580065 343.952965,97.7572152 C346.742422,95.8033283 348.066508,91.8003326 347.494541,87.0497674" id="Fill-100" fill="#75BA78"></path>
    <path d="M310.679224,120.113649 C310.563675,119.917418 309.845696,117.877779 309.845696,97.548727 C309.845696,97.4613965 309.774791,97.391427 309.687604,97.391427 L303.65017,97.391427 C303.562983,97.391427 303.492604,97.4613965 303.492604,97.548727 C303.492604,117.795183 302.780402,119.900583 302.660126,120.110492 C302.62231,120.135218 302.595523,120.175201 302.589221,120.222023 C302.578191,120.30041 302.627037,120.374588 302.702144,120.395631 C302.716325,120.39984 302.731556,120.401944 302.746262,120.401944 L310.585734,120.401944 L310.591512,120.401944 C310.606218,120.401944 310.621974,120.399314 310.636155,120.395631 C310.711788,120.374062 310.758532,120.299883 310.747503,120.222023 C310.7412,120.176253 310.715464,120.137849 310.679224,120.113649" id="Fill-102" fill="#4DB0DF"></path>

    <path class="tree2crown" d="M323.550748,101.560824 L314.557362,93.6605761 C318.367852,91.2800326 320.074825,87.8325848 320.100561,87.7799761 C320.129448,87.71895 320.116843,87.6468761 320.069047,87.5990022 L312.897659,80.5331283 C316.079982,78.6065978 317.504386,75.7331109 317.525395,75.6899717 C317.554282,75.6305239 317.543252,75.5595022 317.497558,75.5121543 L306.782493,64.299663 C306.723142,64.2375848 306.614947,64.2375848 306.555071,64.299663 L295.840531,75.5121543 C295.794837,75.5595022 295.784332,75.6305239 295.812169,75.6899717 C295.833703,75.7331109 297.257582,78.6065978 300.44043,80.5331283 L293.269567,87.5990022 C293.221246,87.6468761 293.208116,87.71895 293.237528,87.7799761 C293.263264,87.8325848 294.970237,91.2800326 298.780727,93.6605761 L289.787341,101.560824 C289.733769,101.607646 289.718537,101.683928 289.749525,101.747585 C289.798371,101.850172 294.800591,111.956828 306.668519,111.956828 C318.537499,111.956828 323.539718,101.850172 323.588564,101.747585 C323.619552,101.683928 323.60432,101.607646 323.550748,101.560824" id="Fill-104" fill="#3A893A"></path>

    <circle class="check-circle" id="Oval-6-Copy-6" fill="#FFFFFF" cx="21" cy="21" r="21"></circle>
    <path class="check" d="M27.8074631,12.6479127 L19.0811732,27.7002473 L14.7376188,21.6521309 C14.6140472,21.4801455 14.4155907,21.3782109 14.2043829,21.3782109 L13.5383017,21.3782109 C13.0025155,21.3782109 12.6918476,21.9872582 13.0052976,22.4236218 L18.0633881,29.4666473 C18.6198082,30.2416291 19.7868993,30.1843782 20.2654206,29.3586618 L29.5685327,13.3114182 C29.8237904,12.8715636 29.5075583,12.32 29.0007524,12.32 L28.3754753,12.32 C28.141547,12.32 27.9252387,12.4447418 27.8074631,12.6479127" id="Imported-Layers-Copy-9" stroke="#008A00" fill="#008A00"></path>
</svg>
