<?xml version="1.0" encoding="UTF-8" standalone="no"?>
<!-- Created with Inkscape (http://www.inkscape.org/) -->

<svg
   xmlns:dc="http://purl.org/dc/elements/1.1/"
   xmlns:cc="http://creativecommons.org/ns#"
   xmlns:rdf="http://www.w3.org/1999/02/22-rdf-syntax-ns#"
   xmlns:svg="http://www.w3.org/2000/svg"
   xmlns="http://www.w3.org/2000/svg"
   xmlns:xlink="http://www.w3.org/1999/xlink"
   xmlns:sodipodi="http://sodipodi.sourceforge.net/DTD/sodipodi-0.dtd"
   xmlns:inkscape="http://www.inkscape.org/namespaces/inkscape"
   width="210mm"
   height="297mm"
   viewBox="0 0 210 297"
   version="1.1"
   id="svg4444"
   inkscape:version="0.92.3 (2405546, 2018-03-11)"
   sodipodi:docname="nyJunior.svg"
   inkscape:label="O">
  <defs
     id="defs4438">
    <linearGradient
       inkscape:collect="always"
       id="linearGradient1075">
      <stop
         style="stop-color:#ffd457;stop-opacity:1;"
         offset="0"
         id="stop1071" />
      <stop
         style="stop-color:#ffd457;stop-opacity:0;"
         offset="1"
         id="stop1073" />
    </linearGradient>
    <linearGradient
       inkscape:collect="always"
       xlink:href="#linearGradient1075"
       id="linearGradient1077"
       x1="139.06973"
       y1="22.317142"
       x2="82.461563"
       y2="-26.079933"
       gradientUnits="userSpaceOnUse"
       gradientTransform="translate(-139.96457,89.164581)" />
  </defs>
  <sodipodi:namedview
     id="base"
     pagecolor="#ffffff"
     bordercolor="#666666"
     borderopacity="1.0"
     inkscape:pageopacity="0.0"
     inkscape:pageshadow="2"
     inkscape:zoom="0.50000001"
     inkscape:cx="-367.88561"
     inkscape:cy="699.9394"
     inkscape:document-units="px"
     inkscape:current-layer="layer3"
     showgrid="false"
     inkscape:showpageshadow="false"
     showborder="false"
     inkscape:object-nodes="false"
     inkscape:window-width="1853"
     inkscape:window-height="1021"
     inkscape:window-x="67"
     inkscape:window-y="27"
     inkscape:window-maximized="1" />
  <metadata
     id="metadata4441">
    <rdf:RDF>
      <cc:Work
         rdf:about="">
        <dc:format>image/svg+xml</dc:format>
        <dc:type
           rdf:resource="http://purl.org/dc/dcmitype/StillImage" />
        <dc:title />
      </cc:Work>
    </rdf:RDF>
  </metadata>
  <g
     id="layer3"
     inkscape:label="R shadow"
     style="display:none"
     inkscape:groupmode="layer">
    <path
       style="fill:#03684a;fill-opacity:1;stroke:none;stroke-width:0.26458332px;stroke-linecap:butt;stroke-linejoin:miter;stroke-opacity:1"
       d="m 81.664203,177.26324 -0.654809,4.39658 18.615321,2.80633 1.496715,-10.00924 -4.770767,-12.53494 -2.61924,17.11861 z"
       id="path5280"
       inkscape:connector-curvature="0"
       sodipodi:nodetypes="ccccccc" />
    <path
       style="fill:#03684a;fill-opacity:1;stroke:none;stroke-width:0.26458332px;stroke-linecap:butt;stroke-linejoin:miter;stroke-opacity:1"
       d="m 107.10826,181.00501 1.87089,5.0514 21.04747,3.27405 -10.7576,-23.76026 c 0,0 4.86431,0.65485 8.69963,-3.55469 2.15152,-3.1805 4.58367,-6.45455 4.0224,-12.2543 -0.37417,-5.79975 -2.61924,-10.28988 -8.13835,-13.84457 0,0 2.24506,4.39659 2.24506,7.39001 0,2.99342 -0.18709,6.17393 -0.8419,7.85772 -0.65481,1.6838 -1.12253,3.46114 -3.92886,6.36102 -2.80633,2.89987 -7.01582,2.71278 -7.67063,2.5257 -0.65481,-0.18709 10.57051,23.8538 10.57051,23.8538 z"
       id="path5282"
       inkscape:connector-curvature="0"
       sodipodi:nodetypes="cccccccsccccc" />
    <path
       style="display:inline;opacity:1;fill:#600d78;fill-opacity:1;stroke:none;stroke-width:0.28564653;stroke-opacity:1"
       d="M 69.971159,157.99312 A 28.811651,28.250388 0 0 1 41.159508,186.24351 28.811651,28.250388 0 0 1 12.347853,157.99312 28.811651,28.250388 0 0 1 41.159508,129.74273 28.811651,28.250388 0 0 1 69.971159,157.99312 Z"
       id="path5341-7"
       inkscape:connector-curvature="0" />
    <path
       style="fill:#1a2169;fill-opacity:1;stroke:none;stroke-width:0.26458332px;stroke-linecap:butt;stroke-linejoin:miter;stroke-opacity:1"
       d="m -1.3733468,137.01031 0.280633,53.13318 -19.7378532,0.0935 v -53.22673 z"
       id="path941"
       inkscape:connector-curvature="0"
       sodipodi:nodetypes="ccccc" />
    <path
       style="display:inline;opacity:1;fill:#d34312;fill-opacity:1;stroke:none;stroke-width:0.26458332px;stroke-linecap:butt;stroke-linejoin:miter;stroke-opacity:1"
       d="m -100.14498,138.77874 17.727071,50.27084 17.462504,-6.08542 -9.392708,-25.92917 24.738541,20.6375 17.462497,-6.2177 -17.72708,-50.13855 -17.065625,5.82084 9.921875,26.45833 -25.664583,-21.16667 z"
       id="path958-3"
       inkscape:connector-curvature="0" />
    <path
       style="display:inline;opacity:1;fill:#fdb312;fill-opacity:1;stroke:none;stroke-width:0.26458332px;stroke-linecap:butt;stroke-linejoin:miter;stroke-opacity:1"
       d="m -152.07272,135.59234 -6.08542,34.52812 c 0,0 0,4.63021 0.13229,6.4823 0.13229,1.85208 2.11667,5.82083 4.10104,8.33437 1.98438,2.51354 7.27605,6.61458 9.525,7.14375 2.24896,0.52917 3.43958,1.85208 12.03854,2.38125 8.59896,0.52917 7.63739,-0.2467 11.11251,-1.05833 0,0 4.6302,-2.24896 8.06978,-7.27604 3.43959,-5.02709 3.175,-7.01146 3.83646,-10.18646 0.66145,-3.175 5.55625,-32.01459 5.55625,-32.01459 l -18.78542,-3.175 -4.7625,27.38438 c 0,0 -1.5875,6.74687 -2.38125,7.54062 -0.79374,0.79375 -2.24895,1.85209 -3.96874,1.5875 -1.7198,-0.26458 -4.10105,-0.92604 -4.49792,-1.71979 -0.39688,-0.79375 -0.66146,-1.05833 -0.39688,-7.01146 0.26459,-5.95312 5.29167,-29.50104 5.29167,-29.50104 z"
       id="path975-6"
       inkscape:connector-curvature="0"
       sodipodi:nodetypes="ccscssssscccsccccc" />
    <path
       style="display:inline;opacity:1;fill:#a23135;fill-opacity:1;stroke:none;stroke-width:0.26458332px;stroke-linecap:butt;stroke-linejoin:miter;stroke-opacity:1"
       d="m -175.84993,138.45071 3.83646,34.79271 c 0,0 0.92604,6.08541 0,8.06979 0.003,2.60346 -7.51645,22.5057 -32.41146,9.39271 l 4.23333,-14.68438 c 0,0 9.78959,7.40834 8.59896,-3.30729 -1.19062,-10.71562 -3.04271,-32.27916 -3.04271,-32.27916 z"
       id="path998-2"
       inkscape:connector-curvature="0"
       sodipodi:nodetypes="cccccscc" />
  </g>
  <g
     inkscape:groupmode="layer"
     id="layer4"
     inkscape:label="Sky"
     style="display:inline;opacity:0.69100001">
    <path
       style="fill:#33bada;fill-opacity:1;stroke:none;stroke-width:1.56500006;stroke-linecap:butt;stroke-linejoin:miter;stroke-miterlimit:4;stroke-dasharray:none;stroke-opacity:1"
       d="m -225.62893,201.95896 h 374.92567 l -0.74835,-74.08711 c 0,0 -11.97367,-49.017233 -44.90128,-30.308366 0,0 -16.089616,-23.573171 -41.159496,4.490126 0,0 3.74177,-7.857722 -9.728611,-13.470382 0,0 13.844561,-21.328107 -29.185832,-15.715447 0,0 13.096207,-26.940768 -20.5797526,-34.798492 0,0 -20.9539304,-4.864305 -42.6562154,11.599497 0,0 -28.437477,-6.735192 -31.805073,17.212157 0,0 0,13.096207 7.857724,23.198995 0,0 -26.192413,-2.619242 -37.417734,24.321522 0,0 -0.74835,-14.21873 -18.70886,-17.212153 0,0 -13.09621,-1.870887 -22.07648,8.606083 0,0 -12.34785,-8.231906 -23.19899,-5.23849 0,0 -9.72861,0.74836 -16.4638,13.09621 0,0 -14.21874,-10.85114 -23.94735,-9.35443 0,0 -14.59292,-0.37418 -20.57975,19.45722 z"
       id="Sky"
       inkscape:connector-curvature="0">
      <desc
         id="desc4841">Skyen og sola</desc>
    </path>
    <path
       style="display:inline;opacity:1;fill:#ffffff;fill-opacity:1;stroke:none;stroke-width:0.29385319;stroke-opacity:1"
       d="M 11.240936,93.535429 A 29.232601,29.466463 0 0 1 -17.991665,123.00188 29.232601,29.466463 0 0 1 -47.224268,93.535429 29.232601,29.466463 0 0 1 -17.991665,64.06896 29.232601,29.466463 0 0 1 11.240936,93.535429 Z"
       id="path5341-7-9-0"
       inkscape:connector-curvature="0" />
    <path
       style="display:inline;opacity:1;fill:url(#linearGradient1077);fill-opacity:1;stroke:none;stroke-width:0.29385319;stroke-opacity:1"
       d="M 11.81782,93.776317 A 29.2326,29.466464 0 0 1 -17.41478,123.24278 29.2326,29.466464 0 0 1 -46.647382,93.776317 29.2326,29.466464 0 0 1 -17.41478,64.309849 29.2326,29.466464 0 0 1 11.81782,93.776317 Z"
       id="path5341-7-9"
       inkscape:connector-curvature="0" />
    <path
       style="fill:none;stroke:#000000;stroke-width:1.56500006;stroke-linecap:round;stroke-linejoin:miter;stroke-miterlimit:4;stroke-dasharray:none;stroke-opacity:1"
       d="m -30.691666,82.158339 c 0,0 7.14375,-7.672917 10.583333,3.175"
       id="path1103"
       inkscape:connector-curvature="0" />
    <path
       style="fill:none;stroke:#000000;stroke-width:1.56500006;stroke-linecap:round;stroke-linejoin:miter;stroke-miterlimit:4;stroke-dasharray:none;stroke-opacity:1"
       d="m -12.170833,85.597922 c 0,0 6.0854167,-6.35 9.2604164,2.38125"
       id="path1105"
       inkscape:connector-curvature="0" />
    <path
       style="fill:none;stroke:#000000;stroke-width:1.56500006;stroke-linecap:round;stroke-linejoin:miter;stroke-miterlimit:4;stroke-dasharray:none;stroke-opacity:1"
       d="m -21.431249,91.947922 c 0,0 7.143749,-3.704167 6.614583,6.085417"
       id="path1107"
       inkscape:connector-curvature="0" />
    <path
       style="fill:none;stroke:#000000;stroke-width:1.56500006;stroke-linecap:round;stroke-linejoin:miter;stroke-miterlimit:4;stroke-dasharray:none;stroke-opacity:1"
       d="m -34.517859,99.715001 5.612662,-3.086962"
       id="path1109"
       inkscape:connector-curvature="0" />
    <path
       style="fill:none;stroke:#000000;stroke-width:1.56500006;stroke-linecap:round;stroke-linejoin:miter;stroke-miterlimit:4;stroke-dasharray:none;stroke-opacity:1"
       d="m -13.002662,101.02462 5.1449382,5.0514"
       id="path1111"
       inkscape:connector-curvature="0" />
    <path
       style="fill:none;stroke:#000000;stroke-width:1.56500006;stroke-linecap:butt;stroke-linejoin:miter;stroke-miterlimit:4;stroke-dasharray:none;stroke-opacity:1"
       d="m -31.805073,98.218293 c 0,0 9.167345,21.702287 21.889374,5.799747"
       id="path1113"
       inkscape:connector-curvature="0" />
  </g>
  <path
     inkscape:connector-curvature="0"
     id="OOOO"
     d="M 62.827689,151.51745 A 28.811653,28.250389 0 0 1 34.016037,179.76784 28.811653,28.250389 0 0 1 5.2043831,151.51745 28.811653,28.250389 0 0 1 34.016037,123.26706 28.811653,28.250389 0 0 1 62.827689,151.51745 Z"
     style="fill:#9311a7;fill-opacity:1;stroke:none;stroke-width:0.28564653;stroke-opacity:1">
    <desc
       id="desc4849">Stor O</desc>
  </path>
  <g
     id="RRRR">
    <path
       style="fill:#00ff00;stroke:none;stroke-width:0.26458332px;stroke-linecap:butt;stroke-linejoin:miter;stroke-opacity:1"
       d="m 113.56282,160.05108 c 0,0 6.17393,0.46773 9.35444,-4.30304 3.1805,-4.77076 3.74177,-10.75759 2.80632,-15.15418 -0.93544,-4.39658 -3.46114,-7.01582 -6.08038,-8.98025 -2.61924,-1.96443 -6.5481,-3.3676 -9.63506,-4.11595 -3.08697,-0.74836 -26.847229,-4.39659 -26.847229,-4.39659 l -7.764179,53.03964 18.334691,2.99342 2.61924,-17.02507 6.922277,18.24114 21.04748,3.55469 z"
       id="path5269"
       inkscape:connector-curvature="0" />
    <path
       style="fill:#03684a;fill-opacity:1;stroke:none;stroke-width:0.26458332px;stroke-linecap:butt;stroke-linejoin:miter;stroke-opacity:1"
       d="m 99.880204,139.80443 -1.653645,10.48411 2.645831,0.36381 c 0,0 2.77813,0.26458 3.50573,-0.0992 0.72761,-0.36381 3.04271,-1.52136 3.27422,-3.86953 0.23151,-2.34818 -0.49609,-4.0349 -0.95911,-4.49792 -0.46303,-0.46302 -1.65365,-1.48828 -3.77032,-1.91823 -2.11666,-0.42995 -3.042706,-0.46302 -3.042706,-0.46302 z"
       id="path865"
       inkscape:connector-curvature="0" />
  </g>
  <path
     inkscape:connector-curvature="0"
     id="Inner_R"
     d="m 105.70509,145.31786 1.96443,0.14032 c 0,0 0.46773,3.27405 -2.57247,4.72399 -3.04018,1.44994 -0.28063,0.14031 -0.28063,0.14031 z"
     style="fill:#33bada;fill-opacity:1;stroke:none;stroke-width:0.26458332px;stroke-linecap:butt;stroke-linejoin:miter;stroke-opacity:1"
     inkscape:label="#Inner R">
    <desc
       id="desc4853">Hullet i Ren</desc>
  </path>
  <path
     inkscape:connector-curvature="0"
     id="Inner_O"
     d="m 43.627853,151.16195 a 9.3544302,10.102786 0 0 1 -9.35443,10.10278 9.3544302,10.102786 0 0 1 -9.35443,-10.10278 9.3544302,10.102786 0 0 1 9.35443,-10.10279 9.3544302,10.102786 0 0 1 9.35443,10.10279 z"
     style="display:inline;opacity:0.881;fill:#590d71;fill-opacity:1;stroke:none;stroke-width:0.14342208;stroke-opacity:1"
     inkscape:label="#Inner O">
    <desc
       id="desc4851">Hullet i Oen</desc>
  </path>
  <path
     sodipodi:nodetypes="ccc"
     inkscape:connector-curvature="0"
     id="path898"
     d="m 32.982404,161.08008 c 0,0.40402 12.491883,1.32886 10.30907,-12.69842 -12.303124,-1.32292 -10.30907,12.69842 -10.30907,12.69842 z"
     style="display:inline;fill:#33bada;fill-opacity:1;stroke:none;stroke-width:0.26458332px;stroke-linecap:butt;stroke-linejoin:miter;stroke-opacity:1" />
  <path
     inkscape:connector-curvature="0"
     id="NNN"
     d="m -106.89166,133.61979 17.727076,50.27084 17.462504,-6.08542 -9.392708,-25.92917 24.738541,20.6375 17.462497,-6.2177 -17.72708,-50.13855 -17.065625,5.82084 9.921875,26.45833 -25.664584,-21.16667 z"
     style="fill:#ef6c02;fill-opacity:1;stroke:none;stroke-width:0.26458332px;stroke-linecap:butt;stroke-linejoin:miter;stroke-opacity:1" />
  <path
     sodipodi:nodetypes="ccscssssscccsccccc"
     inkscape:connector-curvature="0"
     id="UUUU"
     d="m -158.62083,126.79918 -6.08542,34.52812 c 0,0 0,4.63021 0.13229,6.4823 0.13229,1.85208 2.11667,5.82083 4.10104,8.33437 1.98438,2.51354 7.27605,6.61458 9.525,7.14375 2.24896,0.52917 3.43958,1.85208 12.03854,2.38125 8.59896,0.52917 7.6374,-0.2467 11.11251,-1.05833 0,0 4.6302,-2.24896 8.06978,-7.27604 3.43959,-5.02709 3.175,-7.01146 3.83646,-10.18646 0.66146,-3.175 5.55625,-32.01459 5.55625,-32.01459 l -18.78541,-3.175 -4.7625,27.38438 c 0,0 -1.5875,6.74687 -2.38125,7.54062 -0.79375,0.79375 -2.24896,1.85209 -3.96875,1.5875 -1.7198,-0.26458 -4.10105,-0.92604 -4.49792,-1.71979 -0.39688,-0.79375 -0.66146,-1.05833 -0.39688,-7.01146 0.26459,-5.95312 5.29167,-29.50104 5.29167,-29.50104 z"
     style="display:inline;opacity:1;fill:#fcd017;fill-opacity:1;stroke:none;stroke-width:0.26458332px;stroke-linecap:butt;stroke-linejoin:miter;stroke-opacity:1">
    <desc
       id="desc4843">Stor U</desc>
  </path>
  <path
     sodipodi:nodetypes="cccccscc"
     inkscape:connector-curvature="0"
     id="JJJJ"
     d="m -182.58519,129.86083 3.83646,34.79271 c 0,0 0.92604,6.08541 0,8.06979 0.003,2.60346 -7.51645,22.5057 -32.41146,9.39271 l 4.23333,-14.68438 c 0,0 9.78959,7.40834 8.59896,-3.30729 -1.19062,-10.71562 -3.04271,-32.27916 -3.04271,-32.27916 z"
     style="fill:#fc4025;fill-opacity:1;stroke:none;stroke-width:0.26458332px;stroke-linecap:butt;stroke-linejoin:miter;stroke-opacity:1">
    <desc
       id="desc4847">Stor J</desc>
    <title
       id="title4845">JJJJ</title>
  </path>
  <path
     sodipodi:nodetypes="ccccc"
     inkscape:connector-curvature="0"
     id="IIII"
     d="m -7.9980415,128.76057 0.280633,53.13318 -19.7378525,0.0935 v -53.22673 z"
     style="display:inline;fill:#2342aa;fill-opacity:1;stroke:none;stroke-width:0.26458332px;stroke-linecap:butt;stroke-linejoin:miter;stroke-opacity:1" />
</svg>
