<?xml version="1.0" encoding="utf-8"?>
<!-- Generator: Adobe Illustrator 21.0.2, SVG Export Plug-In . SVG Version: 6.00 Build 0)  -->
<svg version="1.1" id="Layer_1" xmlns="http://www.w3.org/2000/svg" xmlns:xlink="http://www.w3.org/1999/xlink" x="0px" y="0px"
	 viewBox="0 0 955 426.2" style="enable-background:new 0 0 955 426.2;" xml:space="preserve">
<style type="text/css">
	.st0{fill:#4CB0DF;}
	.st1{fill:#95D295;}
	.st2{fill:#99D2ED;}
	.st3{fill:#005AA4;}
	.st4{fill:#002776;}
	.st5{fill:#CCE8F6;}
	.st6{fill:#FFFFFF;}
	.st7{fill:#E5F4FA;}
	.st8{clip-path:url(#SVGID_2_);}
	.st9{fill:#C38751;}
	.st10{fill:#0052B5;}
	.st11{clip-path:url(#SVGID_4_);fill:#008ED2;}
	.st12{fill:#EACE59;}
</style>
<g>
	<path class="st0" d="M897.1,374.3c-0.4-0.6-2.8-7.4-2.8-75.3c0-0.3-0.2-0.5-0.5-0.5h-20.2c-0.3,0-0.5,0.2-0.5,0.5
		c0,67.6-2.4,74.6-2.8,75.3c-0.1,0.1-0.2,0.2-0.2,0.4c0,0.3,0.1,0.5,0.4,0.6h0.1h26.2l0,0h0.1c0.3-0.1,0.4-0.3,0.4-0.6
		C897.3,374.5,897.2,374.4,897.1,374.3z"/>
	<path class="st1" d="M940.1,312.5L910,286.1c12.8-7.9,18.5-19.5,18.5-19.6c0.1-0.2,0.1-0.4-0.1-0.6l-24-23.6
		c10.7-6.4,15.4-16,15.5-16.2s0.1-0.4-0.1-0.6L884,188c-0.2-0.2-0.6-0.2-0.8,0l-35.8,37.4c-0.2,0.2-0.2,0.4-0.1,0.6
		c0.1,0.1,4.8,9.8,15.5,16.2l-24,23.6c-0.2,0.2-0.2,0.4-0.1,0.6c0.1,0.2,5.8,11.7,18.5,19.6l-30.1,26.3c-0.2,0.2-0.2,0.4-0.1,0.6
		c0.2,0.3,16.9,34.1,56.6,34.1s56.4-33.8,56.6-34.1C940.3,312.9,940.2,312.6,940.1,312.5z"/>
</g>
<path class="st2" d="M954.5,375.3l-954-0.9c-0.3,0-0.5,0.2-0.5,0.5s0.2,0.5,0.5,0.5l954,0.9c0.3,0,0.5-0.2,0.5-0.5
	S954.8,375.3,954.5,375.3z"/>
<g>
	<path class="st3" d="M699.1,320c-36-20.3-132.3-30.4-164.8-31l-67.8-41.6c-6.8-4.2-14.4-6.8-22.3-7.8c-20-2.5-59.4-6.6-99-6.6
		c-47.9,0-126.6,40.6-149.5,53.1c-3,1.6-6.3,2.6-9.8,2.9c-12.7,1.1-44.3,3.8-64.7,4.7c-0.9,0-1.7,0.4-2.3,1.1
		c-0.6,0.7-0.9,1.6-0.8,2.5l5.7,62.4c0.5,6,3.7,11.4,8.9,14.7c23.1,15.3,51.4,30.7,51.7,30.8c0,0,0.1,0,0.2,0l27.9,2.9h437.9h0.1
		l37.6-10.8c6.3-1.8,10.9-7.1,11.6-13.7l5.8-51.8C705.7,327,703.4,322.3,699.1,320z"/>
	<g>
		<g>
			<g>
				<path class="st2" d="M621.9,422c-23.2,0-42.1-18.9-42.1-42.1s18.9-42.1,42.1-42.1c23.2,0,42.1,18.9,42.1,42.1
					C664.1,403.1,645.1,422,621.9,422z"/>
			</g>
		</g>
		<g>
			<g>
				<path class="st4" d="M621.9,341.8c20.9,0,38,17,38,38c0,20.9-17,38-38,38c-20.9,0-38-17-38-38
					C583.9,358.9,601,341.8,621.9,341.8 M621.9,333.5c-25.5,0-46.4,20.7-46.4,46.4c0,25.5,20.7,46.4,46.4,46.4
					c25.5,0,46.4-20.7,46.4-46.4C668.3,354.3,647.5,333.5,621.9,333.5L621.9,333.5z"/>
			</g>
		</g>
	</g>
	<g>
		<g>
			<g>
				<path class="st2" d="M217.3,422c-23.2,0-42.1-18.9-42.1-42.1s18.9-42.1,42.1-42.1s42.1,18.9,42.1,42.1S240.6,422,217.3,422z"/>
			</g>
		</g>
		<g>
			<g>
				<path class="st4" d="M217.3,341.8c20.9,0,38,17,38,38c0,20.9-17,38-38,38s-38-17-38-38C179.3,358.9,196.3,341.8,217.3,341.8
					 M217.3,333.5c-25.5,0-46.4,20.7-46.4,46.4c0,25.5,20.7,46.4,46.4,46.4c25.5,0,46.4-20.7,46.4-46.4
					C263.6,354.3,242.9,333.5,217.3,333.5L217.3,333.5z"/>
			</g>
		</g>
	</g>
	<g>
		<path class="st5" d="M340.7,246.4c-0.2-1.9-1.9-3.4-3.8-3.3c-22.8,1.4-45.3,7.7-66.6,18.9c-11.6,6-20.2,12.2-25.4,16.3
			c-1,0.8-1.4,2.2-1,3.5c0.5,1.3,1.6,2.1,3,2.1c8.9,0,18.4,0.1,28.6,0.2c19,0.3,40.6,0.7,64.3,1.3c1,0,2-0.4,2.7-1.1
			c0.6-0.7,1-1.7,0.9-2.7L340.7,246.4z"/>
		<path class="st6" d="M508.5,286.2l-45.3-29.8c-7.4-4.9-16.1-8-24.8-9c-15-1.6-46.1-4.3-86.1-4.6c-1,0-2,0.4-2.7,1.2
			s-1,1.9-0.8,2.9l5.4,35.9c0.2,1.7,1.7,2.9,3.4,3c65.2,1.8,126,4.4,149.1,5.4h0.1c1.2,0,2.3-0.8,2.8-1.9
			C510,288.2,509.6,286.9,508.5,286.2z"/>
	</g>
	<g>
		<path class="st7" d="M140.7,307.7l-21.3,0.1c-0.1,0-0.2,0-0.3,0.1c-0.1,0.1-0.1,0.2-0.1,0.3l2.1,22.5c0,0.2,0.2,0.4,0.4,0.4
			c15-0.1,21.1-16.1,22.2-19.2c0.4-1,0.2-2.1-0.4-2.9C142.7,308.2,141.7,307.7,140.7,307.7z"/>
		<path class="st7" d="M705.1,331.8c0-0.1,0-0.2-0.1-0.3c-0.1,0-0.2-0.1-0.3-0.1H688c-0.9,0-1.8,0.4-2.4,1.2
			c-0.5,0.7-0.7,1.7-0.5,2.6l4,15.3c0.4,1.7,1.8,3,3.5,3.4l9.5,2.1c0.1,0,0.2,0,0.1-0.1c0.1-0.1,0.2-0.2,0.2-0.3L705.1,331.8z"/>
	</g>
	<g>
		<g>
			<g>
				<defs>
					<path id="SVGID_1_" d="M508.5,285.9l-45.3-29.8c-7.4-4.9-16-7.9-24.8-9c-15-1.6-46.2-4.4-86.1-4.6c-1.1,0-2.1,0.5-2.8,1.3
						c-0.7,0.8-1,1.9-0.9,3l5.4,35.9c0.3,1.8,1.8,3.1,3.6,3.2c65.2,1.8,126,4.4,149.1,5.4h0.1c1.3,0,2.5-0.9,2.9-2.1
						C510.1,288,509.6,286.7,508.5,285.9z"/>
				</defs>
				<clipPath id="SVGID_2_">
					<use xlink:href="#SVGID_1_"  style="overflow:visible;"/>
				</clipPath>
				<g class="st8">
					<path class="st9" d="M404,278.5c-0.4-0.1-7.5-2-12-2c-1.9,0-3,0.3-3.4,1.1c-0.3,0.6-0.2,1.3,0.4,2.2c3.5,5.4,2,11.6,2,11.7
						c-0.1,0.1,0,0.3,0.1,0.4l8.9,7.2c0.1,0.1,0.2,0.1,0.3,0.1c0.1,0,0.2,0,0.4-0.2c0.2-0.1,4.2-3.1,2.4-6c-1.1-1.8-1.9-5.2-1.2-7.5
						c0.3-1.1,0.9-2,1.9-2.5c0.1,0,0.2-0.2,0.2-0.3l0.3-3.7C404.3,278.7,404.2,278.6,404,278.5z"/>
					<path class="st9" d="M417.2,268.7l-3.3-3.9c-2.5-2.9-3.6-6.8-3.1-10.8c0-0.1,0-0.1,0-0.2c-0.1-0.3-3-9.6-11.2-11.8
						c-0.1,0-0.1,0-0.2,0l-13.2,3c-0.1,0-0.2,0.1-0.3,0.2c0,0.1-1.8,4.5-3,10.1c-1.6,7.5-1.2,13.5,1.2,17.6
						c5.6,9.9,11.5,11.9,11.7,12h0.1l12.6-3.1c2.1-0.5,3.6-2.2,3.9-4.3l0.8-6l3.9-2.1c0.1-0.1,0.2-0.2,0.2-0.3
						S417.3,268.8,417.2,268.7z"/>
					<path class="st4" d="M408.1,242.6c-0.5-3.2-4.5-5.1-10.7-5.1c-1.8,0-3.7,0.2-5.6,0.5c-3.7,0.6-6.8,2.4-9.1,5.1
						c-1.7,2.3-2.7,5-2.4,7.1c-4.5,5.3-0.9,19.6,6.9,27.6c0.1,0.1,0.2,0.1,0.3,0.1s0.1,0,0.3-0.2c0.2,0,4.2-2.1,4.8-10.6
						c0.2,0.3,0.4,0.7,0.6,1.2c0,0.1,0.1,0.2,0.2,0.2s0.2,0,0.3,0l1.3-0.5c0.2-0.1,0.3-0.3,0.2-0.5c-0.1-0.1-3.1-8.3-2.6-11.8
						c0.6-0.5,3.3-2.7,4.3-5.9h0.1c5.4,0,8.5-0.8,10.1-2.5C408.2,246.2,408.4,244.7,408.1,242.6z"/>
					<path class="st9" d="M393.9,269.6c0.2-0.1,0.3-0.4,0.2-0.6c-1.3-2.8-3.2-3.3-4.6-2.9c-1.4,0.4-2.3,1.7-2.1,3
						c0.2,1.9,2,5.1,4.1,5.7c0.2,0.1,0.5,0.1,0.7,0.1c0.7,0,1.3-0.3,1.6-0.8c0.2-0.2,0.2-0.4,0-0.6c0,0-0.1-0.1-0.1-0.1v-3.8
						C393.8,269.6,393.8,269.6,393.9,269.6z"/>
					<path class="st4" d="M408.5,256c-0.7-0.7-1.5-1.1-2.2-1.1c-2.1,0-3.3,3-3.4,3.1c-0.1,0.2,0,0.4,0.2,0.5
						c0.1,0.1,0.1,0.1,0.2,0.1s0.2-0.1,0.4-0.2c1.2-1.6,3.9-1.7,4.4-1.7h0.1c0.2,0.1,0.3,0,0.4-0.2
						C408.6,256.3,408.6,256.1,408.5,256z"/>
					<path class="st9" d="M403.1,283.3l-0.8-1c-0.2-0.2-0.4-0.2-0.6-0.1l0,0l-1.4-0.6c0-0.1,0-0.2-0.2-0.3c-0.1-0.2-0.3-0.2-0.5-0.2
						c-0.4,0-0.6,0.3-0.7,0.5c-0.4,0.7-0.5,1.4-0.6,2c-0.3,1.7-0.3,3.2-0.1,4.6c0.2,1.7,0.9,3.2,1.8,4.3c0.1,0.1,0.3,0.3,0.6,0.3
						c0.4,0,0.6-0.3,0.7-0.3c0.1-0.3,0.1-0.6,0.2-0.8c0.2-0.6,0.3-1.1,0.1-2c-0.1-0.6,0.1-1.1,0.4-1.6c0.2-0.3,0.4-0.7,0.4-1
						c0.1-0.3,0-0.7-0.1-1v-0.2c-0.1-0.4,0.1-1.6,0.6-2C403.2,283.7,403.2,283.5,403.1,283.3z"/>
					<path class="st4" d="M423.2,338.5c-0.1-0.1-5-14.8-7-25.5c-1.3-7.1-4.3-13.7-8.9-18.8c-1.3-1.5-2.6-2.9-3.9-3.9
						c-0.1-0.1-0.3-0.1-0.5,0c-0.8,0.6-1.6,0.9-2.6,0.9s-2.1-0.3-3.2-0.6c-1.3-0.4-2.6-0.8-4-0.8c-0.8,0-1.6,0.1-2.4,0.4
						c-1,0.3-1.8,1.3-2.5,2.8c-1.7,3.8-2,11.6,1.3,19.5c1.5,3.6,3.1,6.9,4.8,10.4l0.4,0.9c2.7,5.5,4.4,11.3,4.9,17.1
						c0.1,1,0.2,1.8,0.4,2.5c0,0.2,0.1,0.3,0.3,0.3c0.1,0,1.9,0.3,4.7,0.3c4.7,0,11.7-0.8,18-4.9
						C423.2,338.9,423.3,338.7,423.2,338.5z"/>
					<path class="st10" d="M409.2,262.3c-0.8-1.2-1.9-1.7-2.9-1.5c-1.2,0.2-2,1.4-2.1,3c0,0.2,0.1,0.4,0.4,0.4
						c0.2,0,0.4-0.2,0.5-0.2c0.1-1.2,0.6-2.1,1.4-2.3c0.7-0.2,1.4,0.2,2,1.1c0.2,0.2,0.4,0.2,0.6,0.1
						C409.3,262.7,409.3,262.5,409.2,262.3z"/>
					<path class="st3" d="M410.7,273.6c-0.2-0.2-0.4-0.2-0.6-0.1c-0.5,0.4-1.3,0.5-2.3,0.3c-1.3-0.3-2.5-1.1-3-2.1
						c-0.1-0.2-0.4-0.3-0.6-0.2c-0.2,0.1-0.3,0.4-0.2,0.6c0.7,1.2,2,2.2,3.6,2.5c0.4,0.1,0.7,0.1,1.1,0.1c0.8,0,1.5-0.1,1.9-0.5
						C410.8,274,410.8,273.8,410.7,273.6z"/>
				</g>
			</g>
		</g>
		<g>
			<g>
				<defs>
					<path id="SVGID_3_" d="M508.5,285.9l-45.3-29.8c-7.4-4.9-16-7.9-24.8-9c-15-1.6-46.2-4.4-86.1-4.6c-1.1,0-2.1,0.5-2.8,1.3
						c-0.7,0.8-1,1.9-0.9,3l5.4,35.9c0.3,1.8,1.8,3.1,3.6,3.2c65.2,1.8,126,4.4,149.1,5.4h0.1c1.3,0,2.5-0.9,2.9-2.1
						C510.1,288,509.6,286.7,508.5,285.9z"/>
				</defs>
				<clipPath id="SVGID_4_">
					<use xlink:href="#SVGID_3_"  style="overflow:visible;"/>
				</clipPath>
				<path class="st11" d="M384.9,293.8l-8.6-28.7c-0.7-2.3-2.9-3.9-5.3-3.9c-0.5,0-1.1,0.1-1.6,0.2l-0.4,0.1c-2.6,0.8-4.3,3.3-3.9,6
					l3.8,29.9c0,0.1,0.1,0.2,0.2,0.3c0.1,0,0.2,0.1,0.2,0.1h0.1l15.3-3.5c0.1,0,0.2-0.1,0.3-0.2C384.9,294,384.9,293.9,384.9,293.8z
					"/>
			</g>
		</g>
	</g>
	<g>
		<path class="st4" d="M376.1,300.4h-17.2c-1.8,0-3.3,1.5-3.3,3.3s1.5,3.3,3.3,3.3h17.2c1.8,0,3.3-1.5,3.3-3.3
			S377.9,300.4,376.1,300.4z"/>
		<path class="st4" d="M509.2,280.6c-3.2-2.7-7.8-5.1-12-6.3c-0.3-0.1-0.6-0.1-0.9-0.1c-1.7,0-3.1,1.3-3.2,3L492,292
			c-0.1,1.8,1.2,3.3,2.9,3.5c2.1,0.2,5.4,0.5,8.7,0.5c7.5,0,11.5-1.5,11.7-4.4C515.6,286.9,512.2,283,509.2,280.6z"/>
	</g>
	<path class="st4" d="M337.8,306.7c4.8-10.3,10.9-15.8,11-15.9c0.1-0.2,0.2-0.4,0-0.6c-0.2-0.1-0.4-0.2-0.6,0
		c-0.1,0-6.2,5.7-11.3,16.2c0,0,0,0.1,0,0.2l12.2,89.2c0,0.2,0.2,0.4,0.4,0.4c0.2-0.1,0.4-0.3,0.4-0.4L337.8,306.7z"/>
	<path class="st4" d="M571.1,395.4H268.5c-0.2,0-0.4,0.2-0.4,0.4c0,0.2,0.2,0.4,0.4,0.4h302.6c0.2,0,0.4-0.2,0.4-0.4
		S571.3,395.4,571.1,395.4z"/>
</g>
<g>
	<path class="st12" d="M158.2,121.7c-12.1-9.4-18.5-22.2-16.7-33.7c1.3-8.6,7.2-15.3,16.7-18.7c0.2-0.1,0.3-0.3,0.3-0.5
		s-0.2-0.4-0.5-0.3c-1.3,0.1-2.6,0.2-3.9,0.2c-9.8,0-17.6-4.1-21.4-11.3c-4.5-8.2-3.1-19.1,3.8-29.7c0.1-0.2,0.1-0.4,0-0.5
		s-0.3-0.2-0.5-0.1c-10,5.5-18.8,8.2-26.3,8.2c-15.4,0-26.4-11.5-33.9-35.1C75.5,0.1,75.3,0,75.1,0c-0.2,0-0.4,0.2-0.4,0.4
		c-0.9,31-11.4,43.5-35.9,43.6c-5.6,0-12.1-0.7-19.3-2.1c-0.2,0-0.4,0.1-0.5,0.2c-0.1,0.2,0,0.4,0.1,0.5
		c9.5,7.2,13.9,16.1,12.2,24.2C29.6,75,22,81.6,11.2,84.3c-0.2,0-0.3,0.2-0.3,0.4c0,0.2,0.2,0.4,0.3,0.4
		c13.8,2.6,22.5,8.7,25.1,17.7c3,10.2-2.4,22.9-14.4,34.2c-0.2,0.2-0.2,0.4,0,0.6c0.1,0.2,0.4,0.2,0.6,0.1
		c7.4-4.5,18.8-10.1,31-10.1c17,0,29.3,11,35.6,31.8c0.1,0.2,0.2,0.3,0.4,0.3l0,0c0.2,0,0.4-0.2,0.4-0.3
		c4.6-23.8,24.5-40.4,48.6-40.4c6.3,0,12.9,1.1,19.4,3.4h0.1l0,0c0.2,0,0.4-0.2,0.4-0.4C158.4,121.9,158.3,121.8,158.2,121.7z"/>
	<path class="st6" d="M84.6,50.9c-18.4,0-33.4,15-33.4,33.4s15,33.4,33.4,33.4s33.4-15,33.4-33.4S103,50.9,84.6,50.9z"/>
	<g>
		<g>
			<path class="st0" d="M83.4,77c-5.5,0-11.4-1.1-16.9-3.2c-0.2-0.1-0.3-0.3-0.2-0.6c0.1-0.2,0.3-0.3,0.6-0.2
				c10.7,4.2,22.2,4.3,31,0.3c5.6-2.6,9.7-6.6,11.5-11.6c0.1-0.2,0.3-0.3,0.5-0.3c0.2,0.1,0.3,0.3,0.3,0.5c-1.8,5.1-6,9.5-11.9,12.1
				C93.7,76,88.6,77,83.4,77z"/>
		</g>
		<g>
			<path class="st0" d="M66.1,77.5c-0.2,0-0.4-0.1-0.4-0.3c-1-5,3.6-6.4,3.6-6.5c0.2-0.1,0.5,0.1,0.5,0.3c0.1,0.2-0.1,0.5-0.3,0.5
				c-0.2,0-3.8,1.2-3,5.5C66.6,77.2,66.4,77.5,66.1,77.5L66.1,77.5z"/>
		</g>
		<g>
			<path class="st0" d="M94.7,63.3c-0.2,0-0.4-0.2-0.4-0.4c-0.2-1.8,0.4-3.2,1.6-4c1.4-0.9,3.3-0.7,5.1,0.3c0.2,0.1,0.3,0.4,0.1,0.6
				c-0.1,0.2-0.4,0.3-0.6,0.1c-1.5-0.9-3.1-1-4.2-0.4c-0.9,0.6-1.4,1.7-1.2,3.2C95.2,63.1,95,63.3,94.7,63.3L94.7,63.3z"/>
		</g>
		<g>
			<path class="st0" d="M83.3,65.6c-0.2,0-0.4-0.1-0.4-0.3c-0.3-1.4-1-2.4-2.1-2.7c-1.2-0.4-2.8,0.2-4,1.5c-0.2,0.2-0.4,0.2-0.6,0
				c-0.2-0.2-0.2-0.4,0-0.6c1.4-1.5,3.3-2.2,4.8-1.7c1.4,0.4,2.3,1.6,2.7,3.4C83.7,65.3,83.6,65.5,83.3,65.6L83.3,65.6z"/>
		</g>
	</g>
</g>
<g>
	<path class="st5" d="M853.2,60.6c-0.3-1.3-0.9-2.7-1.8-4c-2.3-3.5-6.6-5.8-10.9-5.8h-0.2c-2.9,0-5.7,1.4-7.3,3.4
		c-0.5,0.7-0.8,1.4-1,2.1c-1.8-3.2-5.6-5.7-10.1-6.3c-0.7-0.1-1.5-0.2-2.3-0.2c-4,0-7.8,1.4-10.5,3.7c0.8-3.7,0.5-7.2-0.9-10.6
		c-1-2.5-2.7-4.7-5.5-7.1c-2.8-2.4-6.5-3.7-10.2-3.5c-4,0.3-7.4,2-9.8,4.7c-3.2,3.9-4.3,8-3.4,12.4c-2.8-1.2-5.5-2.2-8.4-2.2
		c-0.6,0-1.1,0-1.7,0.1c-4.6,0.7-8,4.7-7.6,8.9c0.3,3.1,2.4,6.6,5.7,9.3c0.8,0.6,1.8,1,2.9,1h78.4c1.5,0,2.9-0.7,3.6-1.8
		C853.2,63.5,853.5,62.1,853.2,60.6z"/>
	<path class="st5" d="M776,137.6c-6.6,0-13.9,4.3-15.6,12.7c-2.3-5.2-7.2-8.3-13.2-8.3c-4.7,0-9.4,2-12.6,5.6
		c0.9-5.4-0.2-10.4-3.1-14c-2.7-3.2-6.6-5.1-10.9-5.1c-5,0-9.6,2.5-13,6.9c2.6-10.1-2.2-21.7-11.7-26.7c-3.2-1.6-6.8-2.5-10.7-2.5
		c-7.9,0-15.6,3.7-20.1,9.8c-3.1,4-4.4,8.7-3.6,12.8c-2.7-1.9-5.6-3-8.5-3c-4.7,0-9.1,2.7-11.6,7.2c-3.6,6.4-2.9,15.3,2,23.4
		c0.9,1.4,2.4,2.3,4.1,2.3h137.1c2.4,0,4.5-1.8,4.9-4.2c0.4-5.2-0.8-9.7-3.6-12.7C783.5,139.1,780,137.6,776,137.6z"/>
</g>
</svg>
